<svg width="159" height="75" viewBox="0 0 159 75" fill="none" xmlns="http://www.w3.org/2000/svg">
<rect width="159" height="75" rx="5" fill="#D62E6A"/>
<path d="M62.416 30.2397C62.416 28.9937 62.911 27.7988 63.792 26.9177C64.673 26.0367 65.868 25.5417 67.1139 25.5417H91.8848C93.1307 25.5417 94.3257 26.0367 95.2067 26.9177C96.0877 27.7988 96.5827 28.9937 96.5827 30.2397V33.2292H62.416V30.2397Z" fill="white"/>
<path d="M62.416 35.7917H96.5827V44.7605C96.5827 46.0065 96.0877 47.2014 95.2067 48.0824C94.3257 48.9635 93.1307 49.4584 91.8848 49.4584H67.1139C65.868 49.4584 64.673 48.9635 63.792 48.0824C62.911 47.2014 62.416 46.0065 62.416 44.7605V35.7917ZM85.9056 41.7709C85.5658 41.7709 85.2399 41.9059 84.9996 42.1462C84.7593 42.3865 84.6243 42.7124 84.6243 43.0522C84.6243 43.392 84.7593 43.7179 84.9996 43.9581C85.2399 44.1984 85.5658 44.3334 85.9056 44.3334H90.1764C90.5162 44.3334 90.8421 44.1984 91.0824 43.9581C91.3227 43.7179 91.4577 43.392 91.4577 43.0522C91.4577 42.7124 91.3227 42.3865 91.0824 42.1462C90.8421 41.9059 90.5162 41.7709 90.1764 41.7709H85.9056Z" fill="white"/>
</svg>
