<svg width="58" height="11" viewBox="0 0 58 11" fill="none" xmlns="http://www.w3.org/2000/svg">
<path d="M8.25184 0.98584H0.483129C0.222239 0.98584 0 1.20808 0 1.47863V2.35793C0 2.62848 0.222239 2.85072 0.483129 2.85072H8.25184C8.52239 2.85072 8.73497 2.62848 8.74463 2.35793V1.48829C8.74463 1.20808 8.52239 0.98584 8.25184 0.98584ZM8.25184 5.86544H0.483129C0.357515 5.86544 0.231902 5.91376 0.144939 6.01038C0.0483129 6.10701 0 6.22296 0 6.35823V7.23753C0 7.50808 0.222239 7.73032 0.483129 7.73032H8.25184C8.52239 7.73032 8.73497 7.51774 8.74463 7.23753V6.35823C8.73497 6.07802 8.52239 5.86544 8.25184 5.86544ZM4.86028 8.30041H0.483129C0.357515 8.30041 0.231902 8.34872 0.144939 8.44535C0.0579755 8.54197 0 8.65793 0 8.7932V9.6725C0 9.94305 0.222239 10.1653 0.483129 10.1653H4.85061C5.12117 10.1653 5.33374 9.94305 5.33374 9.68216V8.80287C5.34341 8.51299 5.13083 8.29075 4.86028 8.30041ZM8.74463 3.42081H0.483129C0.357515 3.42081 0.231902 3.46912 0.144939 3.56575C0.0579755 3.66237 0 3.77832 0 3.9136V4.7929C0 5.06345 0.222239 5.28569 0.483129 5.28569H8.73497C9.00552 5.28569 9.2181 5.06345 9.2181 4.7929V3.9136C9.22776 3.64305 9.00552 3.43047 8.74463 3.42081Z" fill="#00C3F7"/>
<path d="M17.7795 2.95675C17.5379 2.70552 17.2577 2.51227 16.9389 2.37699C16.62 2.24172 16.2818 2.17408 15.934 2.17408C15.5958 2.16442 15.2672 2.24172 14.958 2.38666C14.7551 2.48328 14.5715 2.61856 14.4169 2.78282V2.62822C14.4169 2.55092 14.3879 2.47362 14.3396 2.41564C14.2913 2.35767 14.214 2.31902 14.1271 2.31902H13.0545C12.9772 2.31902 12.8999 2.34801 12.8516 2.41564C12.7936 2.47362 12.7646 2.55092 12.7743 2.62822V9.85583C12.7743 9.93313 12.8033 10.0104 12.8516 10.0684C12.9096 10.1264 12.9772 10.1554 13.0545 10.1554H14.156C14.2333 10.1554 14.301 10.1264 14.359 10.0684C14.4169 10.0201 14.4556 9.94279 14.4459 9.85583V7.38221C14.6005 7.55613 14.8034 7.68175 15.0257 7.75905C15.3155 7.86534 15.6151 7.92331 15.9243 7.92331C16.2721 7.92331 16.62 7.85567 16.9389 7.7204C17.2577 7.58512 17.5476 7.39187 17.7892 7.14064C18.0404 6.87975 18.2336 6.57055 18.3689 6.23236C18.5235 5.85552 18.5912 5.44969 18.5815 5.04387C18.5912 4.63804 18.5139 4.23221 18.3689 3.8457C18.224 3.52684 18.0307 3.21764 17.7795 2.95675ZM16.7939 5.57531C16.7359 5.72991 16.649 5.86518 16.533 5.9908C16.3108 6.23236 15.9919 6.36764 15.6634 6.36764C15.4991 6.36764 15.3349 6.33865 15.1803 6.26135C15.0353 6.19371 14.9001 6.10675 14.7841 5.9908C14.6682 5.87485 14.5812 5.72991 14.5232 5.57531C14.3976 5.24678 14.3976 4.88927 14.5232 4.56074C14.5812 4.40614 14.6778 4.27086 14.7841 4.15491C14.9001 4.03896 15.0353 3.94233 15.1803 3.87469C15.3349 3.80706 15.4991 3.7684 15.6634 3.7684C15.8373 3.7684 15.9919 3.79739 16.1562 3.87469C16.3011 3.94233 16.4364 4.02929 16.5427 4.14524C16.6586 4.2612 16.7359 4.39647 16.8036 4.55107C16.9195 4.88926 16.9099 5.24678 16.7939 5.57531ZM24.4853 2.32868H23.3935C23.3162 2.32868 23.2389 2.35767 23.1906 2.41564C23.1326 2.47362 23.1036 2.55092 23.1036 2.63788V2.77316C22.9683 2.6089 22.7944 2.48328 22.6108 2.39632C22.3113 2.25138 21.9827 2.18374 21.6542 2.18374C20.9488 2.18374 20.2821 2.46396 19.7797 2.95675C19.5188 3.21764 19.3159 3.52684 19.1806 3.86503C19.026 4.24187 18.9487 4.6477 18.9583 5.06319C18.9487 5.46902 19.026 5.87485 19.1806 6.26135C19.3255 6.59954 19.5188 6.90874 19.7797 7.16963C20.2725 7.67209 20.9488 7.9523 21.6445 7.9523C21.9731 7.96196 22.3016 7.88466 22.6011 7.73972C22.7847 7.6431 22.9683 7.51749 23.1036 7.36288V7.50782C23.1036 7.58512 23.1326 7.66242 23.1906 7.7204C23.2485 7.76871 23.3162 7.80736 23.3935 7.80736H24.4853C24.5626 7.80736 24.6399 7.77837 24.6882 7.7204C24.7462 7.66242 24.7752 7.58512 24.7752 7.50782V2.64755C24.7752 2.57024 24.7462 2.49294 24.6979 2.43497C24.6399 2.36733 24.5626 2.32868 24.4853 2.32868ZM23.007 5.57531C22.949 5.72991 22.862 5.86518 22.7461 5.9908C22.6301 6.10675 22.5045 6.20337 22.3596 6.27101C22.0504 6.41595 21.6929 6.41595 21.3836 6.27101C21.2387 6.20337 21.1034 6.10675 20.9875 5.9908C20.8715 5.87485 20.7846 5.72991 20.7266 5.57531C20.6106 5.24678 20.6106 4.88927 20.7266 4.56074C20.7846 4.40614 20.8715 4.28052 20.9875 4.15491C21.1034 4.03896 21.229 3.94233 21.3836 3.87469C21.6929 3.72976 22.0504 3.72976 22.3499 3.87469C22.4948 3.94233 22.6301 4.02929 22.7364 4.14524C22.8427 4.2612 22.9297 4.39647 22.9973 4.55107C23.1326 4.88926 23.1326 5.24678 23.007 5.57531ZM35.3654 4.91825C35.2108 4.78297 35.0272 4.66702 34.834 4.58972C34.631 4.50276 34.4088 4.44479 34.1962 4.39647L33.3652 4.23221C33.1527 4.19356 32.9981 4.13558 32.9208 4.06795C32.8531 4.01963 32.8048 3.94233 32.8048 3.85537C32.8048 3.7684 32.8531 3.6911 32.9594 3.62347C33.1044 3.54617 33.259 3.50751 33.4232 3.51718C33.6358 3.51718 33.8484 3.56549 34.0416 3.64279C34.2349 3.72976 34.4185 3.81672 34.5924 3.93267C34.834 4.08727 35.0465 4.05828 35.1915 3.88436L35.5876 3.43021C35.6649 3.35291 35.7036 3.25629 35.7132 3.15C35.7036 3.03405 35.6456 2.93742 35.5586 2.86012C35.3944 2.71518 35.1238 2.56058 34.7663 2.40598C34.4088 2.25138 33.9547 2.17408 33.4232 2.17408C33.0947 2.16442 32.7758 2.21273 32.4666 2.30936C32.2057 2.39632 31.9545 2.52193 31.7323 2.6862C31.5294 2.8408 31.3748 3.03405 31.2588 3.26595C31.1525 3.48819 31.0945 3.72976 31.0945 3.97132C31.0945 4.42546 31.2298 4.79264 31.5004 5.06319C31.7709 5.33374 32.1284 5.51733 32.5729 5.60429L33.4425 5.79755C33.6261 5.82653 33.8194 5.88451 33.9933 5.97147C34.0899 6.01012 34.1479 6.10675 34.1479 6.21304C34.1479 6.30966 34.0996 6.39663 33.9933 6.47393C33.887 6.55123 33.7131 6.59954 33.4812 6.59954C33.2493 6.59954 33.0077 6.55123 32.7952 6.44494C32.5922 6.34831 32.4086 6.2227 32.2347 6.07776C32.1574 6.01978 32.0801 5.97147 31.9835 5.93282C31.8869 5.90383 31.7613 5.93282 31.6356 6.03911L31.1622 6.39663C31.0269 6.49325 30.9593 6.65752 30.9979 6.81212C31.0269 6.97638 31.1525 7.13098 31.3941 7.31457C31.9932 7.7204 32.7082 7.93297 33.4329 7.91365C33.7711 7.91365 34.1093 7.875 34.4281 7.77837C34.7083 7.69141 34.9692 7.5658 35.2011 7.39187C35.4137 7.23727 35.5876 7.03435 35.7036 6.79279C35.8195 6.56089 35.8775 6.30966 35.8775 6.04877C35.8872 5.81687 35.8389 5.58497 35.7422 5.37239C35.6456 5.21779 35.52 5.05353 35.3654 4.91825ZM40.1387 6.24203C40.0904 6.15506 40.0034 6.09709 39.8971 6.07776C39.8005 6.07776 39.6942 6.10675 39.6169 6.16472C39.4817 6.25169 39.3271 6.3 39.1725 6.30966C39.1241 6.30966 39.0662 6.3 39.0179 6.29034C38.9599 6.28068 38.9116 6.25169 38.8729 6.21304C38.8246 6.16472 38.7859 6.10675 38.757 6.04877C38.7183 5.95215 38.699 5.85552 38.7086 5.7589V3.77807H40.1194C40.2063 3.77807 40.2836 3.73942 40.3416 3.68144C40.3996 3.62347 40.4382 3.55583 40.4382 3.46886V2.62822C40.4382 2.54126 40.4093 2.46396 40.3416 2.41564C40.2836 2.35767 40.2063 2.32868 40.129 2.32868H38.7086V0.975921C38.7086 0.89862 38.6797 0.811656 38.6217 0.763343C38.5637 0.71503 38.4961 0.686043 38.4188 0.67638H37.3172C37.2399 0.67638 37.1626 0.705368 37.1047 0.763343C37.0467 0.821318 37.008 0.89862 37.008 0.975921V2.32868H36.38C36.3027 2.32868 36.2254 2.35767 36.1674 2.42531C36.1191 2.48328 36.0901 2.56058 36.0901 2.63788V3.47853C36.0901 3.55583 36.1191 3.63313 36.1674 3.69111C36.2157 3.75874 36.293 3.78773 36.38 3.78773H37.008V6.1454C36.9984 6.42561 37.0563 6.70583 37.1723 6.95706C37.2786 7.16963 37.4139 7.35322 37.5975 7.50782C37.7714 7.65276 37.9743 7.75905 38.1965 7.81702C38.4188 7.88466 38.6507 7.92331 38.8826 7.92331C39.1821 7.92331 39.4913 7.875 39.7812 7.77837C40.0517 7.69141 40.2933 7.53681 40.4866 7.3339C40.6122 7.20828 40.6218 7.00537 40.5252 6.86043L40.1387 6.24203ZM46.1102 2.32868H45.0183C44.941 2.32868 44.8734 2.35767 44.8154 2.41564C44.7574 2.47362 44.7284 2.55092 44.7284 2.63788V2.77316C44.5932 2.6089 44.4289 2.48328 44.2356 2.39632C43.9361 2.25138 43.6076 2.18374 43.279 2.18374C42.5737 2.18374 41.907 2.46396 41.4045 2.95675C41.1436 3.21764 40.9407 3.52684 40.8054 3.86503C40.6508 4.24187 40.5735 4.6477 40.5832 5.05353C40.5735 5.45935 40.6508 5.86519 40.8054 6.25169C40.9407 6.58988 41.1533 6.89908 41.4045 7.15997C41.8973 7.66242 42.564 7.94264 43.2694 7.94264C43.5979 7.9523 43.9264 7.875 44.226 7.73972C44.4192 7.6431 44.5932 7.51749 44.7284 7.36288V7.50782C44.7284 7.58512 44.7574 7.66242 44.8154 7.71074C44.8734 7.76871 44.941 7.7977 45.0183 7.7977H46.1102C46.2744 7.7977 46.4001 7.67209 46.4001 7.50782V2.64755C46.4001 2.57024 46.3711 2.49294 46.3228 2.43497C46.2744 2.36733 46.1971 2.32868 46.1102 2.32868ZM44.6415 5.57531C44.5835 5.72991 44.4965 5.86518 44.3806 5.9908C44.2646 6.10675 44.139 6.20337 43.9941 6.27101C43.8395 6.33865 43.6752 6.3773 43.5013 6.3773C43.3274 6.3773 43.1728 6.33865 43.0182 6.27101C42.8732 6.20337 42.7379 6.10675 42.622 5.9908C42.506 5.87485 42.4191 5.72991 42.3708 5.57531C42.2548 5.24678 42.2548 4.88927 42.3708 4.56074C42.4287 4.40614 42.5157 4.27086 42.622 4.15491C42.7379 4.03896 42.8732 3.94233 43.0182 3.87469C43.1728 3.80706 43.337 3.7684 43.5013 3.7684C43.6656 3.7684 43.8298 3.79739 43.9941 3.87469C44.139 3.94233 44.2646 4.02929 44.3806 4.14524C44.4965 4.2612 44.5835 4.39647 44.6415 4.55107C44.7671 4.8796 44.7671 5.24678 44.6415 5.57531ZM52.101 6.16472L51.4729 5.68159C51.357 5.58497 51.241 5.55598 51.1444 5.59463C51.0574 5.63328 50.9801 5.69126 50.9125 5.7589C50.7772 5.92316 50.6129 6.0681 50.439 6.19371C50.2458 6.3 50.0429 6.35798 49.8303 6.33865C49.579 6.33865 49.3471 6.27101 49.1442 6.12607C48.9413 5.98113 48.7867 5.78788 48.7094 5.54632C48.6514 5.38205 48.6225 5.21779 48.6225 5.05353C48.6225 4.8796 48.6514 4.71534 48.7094 4.54141C48.7674 4.38681 48.8447 4.25153 48.9606 4.13558C49.0766 4.01963 49.2022 3.92301 49.3471 3.86503C49.5017 3.79739 49.666 3.75874 49.8399 3.75874C50.0525 3.74908 50.2651 3.80706 50.4487 3.91334C50.6323 4.02929 50.7869 4.17423 50.9221 4.34816C50.9801 4.4158 51.0574 4.47377 51.1444 4.51242C51.241 4.55107 51.357 4.52208 51.4729 4.42546L52.101 3.95199C52.1783 3.90368 52.2363 3.82638 52.2652 3.73942C52.3039 3.64279 52.2942 3.5365 52.2363 3.44954C51.9947 3.0727 51.6662 2.7635 51.27 2.54126C50.8545 2.30936 50.3617 2.18374 49.8109 2.18374C49.4244 2.18374 49.0379 2.26104 48.6708 2.40598C48.3229 2.55092 48.0137 2.75383 47.7528 3.01472C47.4919 3.27561 47.2794 3.58482 47.1344 3.93267C46.8349 4.65736 46.8349 5.46902 47.1344 6.19371C47.2794 6.5319 47.4823 6.85077 47.7528 7.10199C48.3036 7.6431 49.0379 7.93298 49.8109 7.93298C50.3617 7.93298 50.8545 7.80736 51.27 7.57546C51.6662 7.35322 52.0044 7.04402 52.2459 6.65751C52.2942 6.57055 52.3039 6.46426 52.2749 6.3773C52.2363 6.3 52.1783 6.2227 52.101 6.16472ZM57.9179 7.29525L56.1882 4.76365L57.6666 2.81181C57.7343 2.72485 57.7633 2.59923 57.7246 2.49295C57.6956 2.41564 57.628 2.33834 57.4444 2.33834H56.2752C56.2076 2.33834 56.1399 2.35767 56.082 2.38666C56.0047 2.42531 55.9467 2.48328 55.908 2.55092L54.7292 4.20322H54.449V0.29954C54.449 0.22224 54.42 0.144938 54.362 0.0869626C54.304 0.0289871 54.2364 0 54.1591 0H53.0672C52.9899 0 52.9126 0.0289871 52.8547 0.0869626C52.7967 0.144938 52.7677 0.212577 52.7677 0.29954V7.49816C52.7677 7.58512 52.7967 7.65276 52.8547 7.71074C52.9126 7.76871 52.9899 7.7977 53.0672 7.7977H54.1591C54.2364 7.7977 54.3137 7.76871 54.362 7.71074C54.42 7.65276 54.449 7.57546 54.449 7.49816V5.59463H54.7582L56.0433 7.5658C56.1206 7.71074 56.2656 7.7977 56.4202 7.7977H57.6473C57.8309 7.7977 57.9082 7.71074 57.9468 7.63344C57.9952 7.51748 57.9855 7.39187 57.9179 7.29525ZM30.6887 2.32868H29.4616C29.3649 2.32868 29.278 2.35767 29.2103 2.42531C29.1524 2.48328 29.1137 2.55092 29.0944 2.62822L28.1861 5.9908H27.9639L26.9976 2.62822C26.9783 2.56058 26.9493 2.49295 26.901 2.42531C26.843 2.35767 26.7657 2.31902 26.6787 2.31902H25.4323C25.268 2.31902 25.1714 2.36733 25.1231 2.48328C25.0941 2.57991 25.0941 2.6862 25.1231 2.78282L26.6691 7.51748C26.6981 7.58512 26.7271 7.66242 26.785 7.71074C26.843 7.76871 26.93 7.7977 27.0169 7.7977H27.674L27.616 7.9523L27.4711 8.38712C27.4228 8.52239 27.3455 8.63834 27.2295 8.72531C27.1232 8.80261 26.9976 8.85092 26.8623 8.84126C26.7464 8.84126 26.6401 8.81227 26.5338 8.77362C26.4275 8.72531 26.3309 8.66733 26.2439 8.59969C26.1666 8.54172 26.07 8.51273 25.9637 8.51273H25.954C25.8381 8.52239 25.7318 8.58037 25.6738 8.68666L25.2873 9.25675C25.1327 9.50797 25.2197 9.66258 25.3163 9.74954C25.5289 9.94279 25.7705 10.0877 26.041 10.1747C26.3406 10.281 26.6498 10.3293 26.959 10.3293C27.5194 10.3293 27.9832 10.1747 28.3407 9.87515C28.7079 9.54663 28.9881 9.12147 29.1234 8.63834L30.9206 2.78282C30.9593 2.67653 30.9689 2.57025 30.9303 2.47362C30.9206 2.40598 30.853 2.32868 30.6887 2.32868Z" fill="#011B33"/>
</svg>
