<svg width="313" height="56" viewBox="0 0 313 56" fill="none" xmlns="http://www.w3.org/2000/svg">
<path d="M44.5337 5.31787H2.60736C1.19939 5.31787 0 6.51726 0 7.97738V12.7228C0 14.1829 1.19939 15.3823 2.60736 15.3823H44.5337C45.9939 15.3823 47.1411 14.1829 47.1933 12.7228V8.02953C47.1933 6.51726 45.9939 5.31787 44.5337 5.31787ZM44.5337 31.6522H2.60736C1.92945 31.6522 1.25153 31.913 0.782209 32.4344C0.260736 32.9559 0 33.5817 0 34.3117V39.0571C0 40.5173 1.19939 41.7166 2.60736 41.7166H44.5337C45.9939 41.7166 47.1411 40.5694 47.1933 39.0571V34.3117C47.1411 32.7995 45.9939 31.6522 44.5337 31.6522ZM26.2301 44.7933H2.60736C1.92945 44.7933 1.25153 45.0541 0.782209 45.5755C0.312883 46.097 0 46.7228 0 47.4528V52.1982C0 53.6584 1.19939 54.8578 2.60736 54.8578H26.1779C27.638 54.8578 28.7853 53.6584 28.7853 52.2504V47.505C28.8374 45.9406 27.6902 44.7412 26.2301 44.7933ZM47.1933 18.459H2.60736C1.92945 18.459 1.25153 18.7197 0.782209 19.2412C0.312883 19.7627 0 20.3884 0 21.1185V25.8639C0 27.324 1.19939 28.5234 2.60736 28.5234H47.1411C48.6012 28.5234 49.7485 27.324 49.7485 25.8639V21.1185C49.8006 19.6584 48.6012 18.5111 47.1933 18.459Z" fill="#00C3F7"/>
<path d="M95.9538 15.9571C94.6501 14.6012 93.1378 13.5583 91.417 12.8282C89.6961 12.0982 87.871 11.7331 85.9937 11.7331C84.1685 11.681 82.3955 12.0982 80.7268 12.8804C79.6317 13.4018 78.6409 14.1319 77.8066 15.0184V14.184C77.8066 13.7669 77.6501 13.3497 77.3894 13.0368C77.1286 12.7239 76.7115 12.5153 76.2421 12.5153H70.4538C70.0366 12.5153 69.6194 12.6718 69.3587 13.0368C69.0458 13.3497 68.8894 13.7669 68.9415 14.184V53.1902C68.9415 53.6074 69.098 54.0246 69.3587 54.3374C69.6716 54.6503 70.0366 54.8068 70.4538 54.8068H76.3986C76.8158 54.8068 77.1808 54.6503 77.4937 54.3374C77.8066 54.0767 78.0151 53.6595 77.963 53.1902V39.8405C78.7974 40.7791 79.8924 41.4571 81.0918 41.8742C82.6562 42.4479 84.2728 42.7607 85.9415 42.7607C87.8188 42.7607 89.6961 42.3957 91.417 41.6656C93.1378 40.9356 94.7023 39.8926 96.0059 38.5368C97.3618 37.1288 98.4047 35.4601 99.1348 33.635C99.9691 31.6012 100.334 29.4111 100.282 27.2209C100.334 25.0307 99.917 22.8405 99.1348 20.7546C98.3526 19.0337 97.3096 17.365 95.9538 15.9571ZM90.6348 30.089C90.3219 30.9233 89.8526 31.6534 89.2268 32.3313C88.0274 33.635 86.3066 34.365 84.5335 34.365C83.647 34.365 82.7605 34.2086 81.9262 33.7914C81.144 33.4264 80.4139 32.9571 79.7881 32.3313C79.1624 31.7055 78.6931 30.9233 78.3802 30.089C77.7023 28.316 77.7023 26.3865 78.3802 24.6135C78.6931 23.7792 79.2145 23.0491 79.7881 22.4233C80.4139 21.7975 81.144 21.2761 81.9262 20.911C82.7605 20.546 83.647 20.3374 84.5335 20.3374C85.4722 20.3374 86.3066 20.4939 87.1931 20.911C87.9753 21.2761 88.7053 21.7454 89.2789 22.3712C89.9047 22.9969 90.3219 23.727 90.6869 24.5614C91.3127 26.3865 91.2605 28.316 90.6348 30.089ZM132.144 12.5675H126.251C125.834 12.5675 125.417 12.7239 125.156 13.0368C124.843 13.3497 124.687 13.7669 124.687 14.2362V14.9663C123.957 14.0798 123.018 13.4018 122.027 12.9325C120.411 12.1503 118.638 11.7853 116.865 11.7853C113.058 11.7853 109.46 13.2976 106.748 15.9571C105.34 17.365 104.245 19.0337 103.515 20.8589C102.681 22.8926 102.264 25.0828 102.316 27.3252C102.264 29.5153 102.681 31.7055 103.515 33.7914C104.297 35.6166 105.34 37.2853 106.748 38.6933C109.408 41.4049 113.058 42.9172 116.813 42.9172C118.586 42.9693 120.359 42.5522 121.975 41.7699C122.966 41.2485 123.957 40.5706 124.687 39.7362V40.5184C124.687 40.9356 124.843 41.3528 125.156 41.6656C125.469 41.9264 125.834 42.135 126.251 42.135H132.144C132.561 42.135 132.978 41.9785 133.239 41.6656C133.552 41.3528 133.708 40.9356 133.708 40.5184V14.2883C133.708 13.8712 133.552 13.454 133.291 13.1411C132.978 12.7761 132.561 12.5675 132.144 12.5675ZM124.165 30.089C123.853 30.9233 123.383 31.6534 122.757 32.3313C122.132 32.9571 121.454 33.4785 120.672 33.8436C119.003 34.6258 117.073 34.6258 115.405 33.8436C114.623 33.4785 113.892 32.9571 113.267 32.3313C112.641 31.7055 112.172 30.9233 111.859 30.089C111.233 28.316 111.233 26.3865 111.859 24.6135C112.172 23.7792 112.641 23.1012 113.267 22.4233C113.892 21.7975 114.57 21.2761 115.405 20.911C117.073 20.1288 119.003 20.1288 120.619 20.911C121.402 21.2761 122.132 21.7454 122.705 22.3712C123.279 22.9969 123.748 23.727 124.113 24.5614C124.843 26.3865 124.843 28.316 124.165 30.089ZM190.862 26.5429C190.027 25.8129 189.037 25.1871 187.994 24.7699C186.899 24.3006 185.699 23.9877 184.552 23.727L180.067 22.8405C178.92 22.6319 178.086 22.319 177.669 21.954C177.303 21.6933 177.043 21.2761 177.043 20.8067C177.043 20.3374 177.303 19.9202 177.877 19.5552C178.659 19.138 179.494 18.9294 180.38 18.9816C181.527 18.9816 182.675 19.2423 183.718 19.6595C184.761 20.1288 185.751 20.5982 186.69 21.2239C187.994 22.0583 189.141 21.9018 189.923 20.9632L192.061 18.5123C192.478 18.0951 192.687 17.5736 192.739 17C192.687 16.3742 192.374 15.8528 191.905 15.4356C191.018 14.6534 189.558 13.819 187.629 12.9847C185.699 12.1503 183.248 11.7331 180.38 11.7331C178.607 11.681 176.886 11.9417 175.218 12.4632C173.81 12.9325 172.454 13.6104 171.254 14.4969C170.159 15.3313 169.325 16.3742 168.699 17.6258C168.126 18.8252 167.813 20.1288 167.813 21.4325C167.813 23.8834 168.543 25.865 170.003 27.3252C171.463 28.7853 173.392 29.7761 175.791 30.2454L180.484 31.2883C181.475 31.4448 182.518 31.7577 183.457 32.227C183.978 32.4356 184.291 32.9571 184.291 33.5307C184.291 34.0521 184.03 34.5215 183.457 34.9387C182.883 35.3558 181.945 35.6166 180.693 35.6166C179.442 35.6166 178.138 35.3558 176.991 34.7822C175.896 34.2607 174.905 33.5828 173.966 32.8006C173.549 32.4877 173.132 32.227 172.61 32.0184C172.089 31.862 171.411 32.0184 170.733 32.592L168.178 34.5215C167.448 35.043 167.083 35.9295 167.291 36.7638C167.448 37.6503 168.126 38.4847 169.429 39.4755C172.662 41.6657 176.521 42.8129 180.432 42.7086C182.257 42.7086 184.083 42.5 185.803 41.9785C187.316 41.5092 188.724 40.8313 189.975 39.8926C191.123 39.0583 192.061 37.9632 192.687 36.6595C193.313 35.408 193.626 34.0522 193.626 32.6442C193.678 31.3926 193.417 30.1411 192.896 28.9939C192.374 28.1595 191.696 27.273 190.862 26.5429ZM216.623 33.6871C216.362 33.2178 215.892 32.9049 215.319 32.8006C214.797 32.8006 214.224 32.9571 213.807 33.2699C213.076 33.7393 212.242 34 211.408 34.0521C211.147 34.0521 210.834 34 210.573 33.9479C210.261 33.8957 210 33.7393 209.791 33.5307C209.53 33.2699 209.322 32.9571 209.165 32.6442C208.957 32.1227 208.853 31.6012 208.905 31.0798V20.3896H216.518C216.988 20.3896 217.405 20.181 217.718 19.8681C218.03 19.5552 218.239 19.1902 218.239 18.7209V14.184C218.239 13.7147 218.083 13.2975 217.718 13.0368C217.405 12.7239 216.988 12.5675 216.57 12.5675H208.905V5.26687C208.905 4.8497 208.748 4.38037 208.435 4.11963C208.123 3.85889 207.757 3.70245 207.34 3.65031H201.396C200.978 3.65031 200.561 3.80675 200.248 4.11963C199.935 4.43251 199.727 4.8497 199.727 5.26687V12.5675H196.337C195.92 12.5675 195.503 12.7239 195.19 13.089C194.929 13.4018 194.773 13.819 194.773 14.2362V18.773C194.773 19.1902 194.929 19.6074 195.19 19.9203C195.451 20.2853 195.868 20.4417 196.337 20.4417H199.727V33.1657C199.675 34.6779 199.988 36.1902 200.613 37.546C201.187 38.6933 201.917 39.6841 202.908 40.5184C203.846 41.3006 204.942 41.8742 206.141 42.1871C207.34 42.5521 208.592 42.7607 209.843 42.7607C211.46 42.7607 213.129 42.5 214.693 41.9785C216.153 41.5092 217.457 40.6748 218.5 39.5798C219.178 38.9018 219.23 37.8068 218.708 37.0245L216.623 33.6871ZM248.849 12.5675H242.957C242.54 12.5675 242.175 12.7239 241.862 13.0368C241.549 13.3497 241.392 13.7669 241.392 14.2362V14.9663C240.662 14.0798 239.776 13.4018 238.733 12.9325C237.116 12.1503 235.343 11.7853 233.57 11.7853C229.764 11.7853 226.165 13.2976 223.454 15.9571C222.046 17.365 220.951 19.0337 220.221 20.8589C219.386 22.8926 218.969 25.0828 219.021 27.273C218.969 29.4632 219.386 31.6534 220.221 33.7393C220.951 35.5644 222.098 37.2331 223.454 38.6411C226.113 41.3528 229.711 42.865 233.518 42.865C235.291 42.9172 237.064 42.5 238.681 41.7699C239.724 41.2485 240.662 40.5706 241.392 39.7362V40.5184C241.392 40.9356 241.549 41.3528 241.862 41.6135C242.175 41.9264 242.54 42.0828 242.957 42.0828H248.849C249.736 42.0828 250.414 41.4049 250.414 40.5184V14.2883C250.414 13.8712 250.257 13.454 249.997 13.1411C249.736 12.7761 249.319 12.5675 248.849 12.5675ZM240.923 30.089C240.61 30.9233 240.141 31.6534 239.515 32.3313C238.889 32.9571 238.211 33.4785 237.429 33.8436C236.595 34.2086 235.708 34.4172 234.77 34.4172C233.831 34.4172 232.997 34.2086 232.162 33.8436C231.38 33.4785 230.65 32.9571 230.024 32.3313C229.399 31.7055 228.929 30.9233 228.669 30.089C228.043 28.316 228.043 26.3865 228.669 24.6135C228.981 23.7792 229.451 23.0491 230.024 22.4233C230.65 21.7975 231.38 21.2761 232.162 20.911C232.997 20.546 233.883 20.3374 234.77 20.3374C235.656 20.3374 236.543 20.4939 237.429 20.911C238.211 21.2761 238.889 21.7454 239.515 22.3712C240.141 22.9969 240.61 23.727 240.923 24.5614C241.601 26.3344 241.601 28.316 240.923 30.089ZM281.181 33.2699L277.791 30.6626C277.165 30.1411 276.54 29.9847 276.018 30.1933C275.549 30.4018 275.132 30.7147 274.767 31.0798C274.037 31.9663 273.15 32.7485 272.211 33.4264C271.169 34 270.073 34.3129 268.926 34.2086C267.57 34.2086 266.319 33.8436 265.224 33.0614C264.129 32.2791 263.294 31.2362 262.877 29.9325C262.564 29.046 262.408 28.1595 262.408 27.273C262.408 26.3344 262.564 25.4479 262.877 24.5092C263.19 23.6748 263.607 22.9448 264.233 22.319C264.859 21.6932 265.537 21.1718 266.319 20.8589C267.153 20.4939 268.04 20.2853 268.978 20.2853C270.126 20.2331 271.273 20.546 272.264 21.1196C273.254 21.7454 274.089 22.5276 274.819 23.4663C275.132 23.8313 275.549 24.1442 276.018 24.3528C276.54 24.5614 277.165 24.4049 277.791 23.8834L281.181 21.3282C281.598 21.0675 281.911 20.6503 282.067 20.181C282.276 19.6595 282.224 19.0859 281.911 18.6166C280.607 16.5828 278.834 14.9141 276.696 13.7147C274.454 12.4632 271.794 11.7853 268.822 11.7853C266.736 11.7853 264.65 12.2025 262.669 12.9847C260.791 13.7669 259.123 14.862 257.715 16.2699C256.307 17.6779 255.159 19.3466 254.377 21.2239C252.761 25.135 252.761 29.5153 254.377 33.4264C255.159 35.2515 256.254 36.9724 257.715 38.3282C260.687 41.2485 264.65 42.8129 268.822 42.8129C271.794 42.8129 274.454 42.135 276.696 40.8834C278.834 39.6841 280.659 38.0153 281.963 35.9294C282.224 35.4601 282.276 34.8865 282.119 34.4172C281.911 34 281.598 33.5828 281.181 33.2699ZM312.573 39.3712L303.239 25.7086L311.218 15.1749C311.583 14.7055 311.739 14.0276 311.53 13.454C311.374 13.0368 311.009 12.6196 310.018 12.6196H303.708C303.343 12.6196 302.978 12.7239 302.665 12.8804C302.248 13.089 301.935 13.4018 301.727 13.7669L295.365 22.6841H293.853V1.61657C293.853 1.19939 293.696 0.782206 293.383 0.469322C293.07 0.156439 292.705 0 292.288 0H286.396C285.978 0 285.561 0.156439 285.248 0.469322C284.935 0.782206 284.779 1.14724 284.779 1.61657V40.4663C284.779 40.9356 284.935 41.3006 285.248 41.6135C285.561 41.9264 285.978 42.0828 286.396 42.0828H292.288C292.705 42.0828 293.123 41.9264 293.383 41.6135C293.696 41.3006 293.853 40.8834 293.853 40.4663V30.1933H295.521L302.457 40.8313C302.874 41.6135 303.656 42.0828 304.491 42.0828H311.113C312.104 42.0828 312.521 41.6135 312.73 41.1963C312.991 40.5706 312.938 39.8926 312.573 39.3712ZM165.623 12.5675H159C158.478 12.5675 158.009 12.7239 157.644 13.089C157.331 13.4018 157.123 13.7669 157.018 14.184L152.116 32.3313H150.917L145.702 14.184C145.598 13.819 145.442 13.454 145.181 13.089C144.868 12.7239 144.451 12.5153 143.981 12.5153H137.254C136.368 12.5153 135.846 12.7761 135.586 13.4018C135.429 13.9233 135.429 14.4969 135.586 15.0184L143.929 40.5706C144.086 40.9356 144.242 41.3528 144.555 41.6135C144.868 41.9264 145.337 42.0828 145.807 42.0828H149.353L149.04 42.9172L148.257 45.2638C147.997 45.9939 147.58 46.6196 146.954 47.089C146.38 47.5061 145.702 47.7669 144.972 47.7147C144.346 47.7147 143.773 47.5583 143.199 47.3497C142.626 47.089 142.104 46.7761 141.635 46.411C141.218 46.0982 140.696 45.9417 140.123 45.9417H140.07C139.445 45.9939 138.871 46.3068 138.558 46.8804L136.472 49.9571C135.638 51.3129 136.107 52.1472 136.629 52.6166C137.776 53.6595 139.08 54.4417 140.54 54.911C142.156 55.4847 143.825 55.7454 145.494 55.7454C148.518 55.7454 151.021 54.9111 152.951 53.2945C154.932 51.5215 156.445 49.227 157.175 46.6196L166.874 15.0184C167.083 14.4448 167.135 13.8712 166.926 13.3497C166.874 12.9847 166.509 12.5675 165.623 12.5675Z" fill="#011B33"/>
</svg>
