<svg width="159" height="76" viewBox="0 0 159 76" fill="none" xmlns="http://www.w3.org/2000/svg">
<g clip-path="url(#clip0)">
<path d="M154.664 0H4.33636C1.94146 0 0 1.94146 0 4.33636V70.8273C0 73.2222 1.94146 75.1636 4.33636 75.1636H154.664C157.059 75.1636 159 73.2222 159 70.8273V4.33636C159 1.94146 157.059 0 154.664 0Z" fill="#6573E9"/>
<path fill-rule="evenodd" clip-rule="evenodd" d="M109.855 38.3657C109.855 33.8878 107.684 30.3545 103.534 30.3545C99.367 30.3545 96.8457 33.8878 96.8457 38.3307C96.8457 43.5957 99.8222 46.2545 104.094 46.2545C106.178 46.2545 107.754 45.7822 108.944 45.1175V41.6192C107.754 42.2139 106.388 42.5812 104.655 42.5812C102.956 42.5812 101.451 41.9865 101.258 39.9225H109.82C109.82 39.6951 109.855 38.7855 109.855 38.3657ZM101.205 36.704C101.205 34.7274 102.414 33.9053 103.517 33.9053C104.585 33.9053 105.723 34.7274 105.723 36.704H101.205Z" fill="white"/>
<path fill-rule="evenodd" clip-rule="evenodd" d="M91.0839 30.3545C89.4282 30.3545 88.3638 31.1702 87.7725 31.7376L87.5528 30.6382H83.8359V51.3136L88.0597 50.3738L88.0766 45.3557C88.6848 45.8167 89.5802 46.4728 91.067 46.4728C94.0912 46.4728 96.845 43.9194 96.845 38.2984C96.8281 33.1561 94.0405 30.3545 91.0839 30.3545ZM90.0702 42.5718C89.0734 42.5718 88.482 42.1994 88.0766 41.7384L88.0597 35.1598C88.4989 34.6456 89.1072 34.291 90.0702 34.291C91.6076 34.291 92.672 36.0996 92.672 38.4225C92.672 40.7986 91.6245 42.5718 90.0702 42.5718Z" fill="white"/>
<path fill-rule="evenodd" clip-rule="evenodd" d="M78.0547 29.6318L82.3911 28.7206V25.2954L78.0547 26.1897V29.6318Z" fill="white"/>
<path d="M82.3911 30.3545H78.0547V45.5318H82.3911V30.3545Z" fill="white"/>
<path fill-rule="evenodd" clip-rule="evenodd" d="M73.9152 31.8003L73.6524 30.5317H70.1045V45.5318H74.2109V35.366C75.18 34.046 76.8226 34.286 77.3318 34.4746V30.5317C76.8061 30.326 74.8843 29.9488 73.9152 31.8003Z" fill="white"/>
<path fill-rule="evenodd" clip-rule="evenodd" d="M64.7889 26.7407L60.7256 27.621L60.709 41.1809C60.709 43.6864 62.5574 45.5316 65.022 45.5316C66.3876 45.5316 67.3867 45.2777 67.9363 44.973V41.5364C67.4034 41.7565 64.7722 42.5352 64.7722 40.0298V34.0201H67.9363V30.4143H64.7722L64.7889 26.7407Z" fill="white"/>
<path fill-rule="evenodd" clip-rule="evenodd" d="M53.4648 35.0895C53.4648 34.4081 54.0111 34.146 54.9159 34.146C56.2134 34.146 57.8524 34.5479 59.1499 35.2643V31.1582C57.7329 30.5816 56.3329 30.3545 54.9159 30.3545C51.4503 30.3545 49.1455 32.2066 49.1455 35.2992C49.1455 40.1216 55.633 39.3528 55.633 41.4321C55.633 42.2358 54.9501 42.4979 53.994 42.4979C52.577 42.4979 50.7674 41.9038 49.3333 41.1001V45.2586C50.921 45.9575 52.5258 46.2545 53.994 46.2545C57.5451 46.2545 59.9864 44.4548 59.9864 41.3272C59.9693 36.1204 53.4648 37.0465 53.4648 35.0895Z" fill="white"/>
</g>
<defs>
<clipPath id="clip0">
<rect width="159" height="75.1636" fill="white"/>
</clipPath>
</defs>
</svg>
